<svg xmlns="http://www.w3.org/2000/svg" width="61" height="32"><path fill="#8e8f99" d="M25.022 23.718a.042.042 0 0 1 .031.012l.08.076a.65.65 0 0 1-.226.143.884.884 0 0 1-.32.051.871.871 0 0 1-.301-.048.622.622 0 0 1-.425-.613.616.616 0 0 1 .211-.478.742.742 0 0 1 .241-.136.953.953 0 0 1 .31-.048.85.85 0 0 1 .288.044c.079.029.152.07.216.121l-.067.081a.061.061 0 0 1-.017.015c-.008.005-.018.007-.027.006s-.02-.004-.029-.009l-.036-.021-.05-.027a.78.78 0 0 0-.067-.027.706.706 0 0 0-.433.006.463.463 0 0 0-.288.262.539.539 0 0 0-.041.213.553.553 0 0 0 .041.216.457.457 0 0 0 .278.259.603.603 0 0 0 .207.034.987.987 0 0 0 .122-.007.494.494 0 0 0 .265-.111.07.07 0 0 1 .038-.014zM27.34 23.338a.654.654 0 0 1-.054.267c-.033.077-.084.148-.151.207s-.148.105-.237.136a.993.993 0 0 1-.61 0 .708.708 0 0 1-.236-.136.607.607 0 0 1-.153-.209.687.687 0 0 1 0-.534.62.62 0 0 1 .389-.341.978.978 0 0 1 .61 0c.089.031.17.077.237.136a.62.62 0 0 1 .206.475zm-.21 0a.544.544 0 0 0-.038-.214.446.446 0 0 0-.277-.261.717.717 0 0 0-.444 0 .483.483 0 0 0-.17.101.424.424 0 0 0-.108.16.62.62 0 0 0 0 .429.449.449 0 0 0 .278.26.732.732 0 0 0 .444 0 .442.442 0 0 0 .277-.26.547.547 0 0 0 .038-.214zM28.922 23.563l.021.048.023-.048c.008-.015.016-.032.026-.047l.513-.797c.01-.014.019-.022.029-.025a.12.12 0 0 1 .042-.004h.152v1.296h-.18v-1.038l-.516.808c-.007.012-.017.022-.03.029s-.028.011-.044.011h-.029c-.016 0-.031-.004-.044-.011s-.024-.017-.03-.03l-.531-.813v1.04h-.174v-1.293h.152a.146.146 0 0 1 .042.004.057.057 0 0 1 .028.025l.524.798a.3.3 0 0 1 .026.046zM30.853 23.499v.485h-.201V22.69h.448a.999.999 0 0 1 .25.028.502.502 0 0 1 .177.081.322.322 0 0 1 .1.127.383.383 0 0 1 .034.166.362.362 0 0 1-.145.296.526.526 0 0 1-.178.086.892.892 0 0 1-.242.03l-.243-.003zm0-.139h.243a.548.548 0 0 0 .156-.02.337.337 0 0 0 .112-.056.247.247 0 0 0 .092-.195c.002-.036-.005-.072-.02-.105s-.04-.064-.07-.088a.435.435 0 0 0-.27-.069h-.243v.533zM33.551 23.986h-.159a.08.08 0 0 1-.044-.012.083.083 0 0 1-.026-.03l-.136-.313H32.5l-.142.313a.076.076 0 0 1-.025.029.079.079 0 0 1-.045.013h-.159l.602-1.296h.209l.61 1.296zm-.994-.481h.566l-.239-.527a.893.893 0 0 1-.045-.122l-.023.068c-.007.021-.015.039-.022.055l-.237.527zM34.418 22.696a.1.1 0 0 1 .03.023l.878.977V22.69h.18v1.296h-.1c-.014 0-.028-.002-.041-.008s-.023-.014-.032-.024l-.877-.976v1.008h-.18V22.69h.106c.012 0 .025.002.036.006zM36.985 23.47v.515h-.201v-.515l-.555-.78h.18a.07.07 0 0 1 .043.011c.011.008.02.018.027.029l.347.503a.68.68 0 0 1 .061.115l.026-.056a.5.5 0 0 1 .034-.059l.343-.507a.133.133 0 0 1 .026-.027.066.066 0 0 1 .043-.013h.182l-.556.784zM28.823 20.515c.087.009.176.017.265.024 1.354-.518 2.5-1.365 3.294-2.436s1.201-2.318 1.17-3.585l-1.493-1.275c.303 1.349.162 2.744-.41 4.029s-1.55 2.408-2.826 3.244z"/><path fill="#8e8f99" d="m28.29 20.456.04.007c1.364-.833 2.403-1.997 2.984-3.341s.677-2.805.276-4.196l-2.126-1.816c.86 1.493 1.206 3.164.998 4.818s-.961 3.225-2.172 4.528zM35.5 16.015c-.361 1.393-1.238 2.648-2.501 3.581a8.02 8.02 0 0 1-1.188.729c1.028-.258 1.974-.715 2.763-1.335s1.401-1.386 1.789-2.24l-.862-.736z"/><path fill="#8e8f99" d="m35.162 15.81-1.228-1.049c-.023 1.196-.421 2.364-1.152 3.384s-1.768 1.854-3.004 2.416h.006c.275 0 .551-.014.824-.042 1.155-.403 2.175-1.044 2.97-1.865s1.339-1.799 1.584-2.844zM28.468 10.344l-1.465-1.253c-1.309.432-2.435 1.192-3.231 2.18s-1.223 2.158-1.227 3.357c.005 1.325.527 2.611 1.483 3.654s2.293 1.784 3.797 2.105c1.343-1.398 2.13-3.126 2.245-4.932s-.446-3.597-1.604-5.111zM38.545 15.617c-.005-1.572-.739-3.079-2.04-4.19s-3.064-1.738-4.904-1.743a7.911 7.911 0 0 0-2.486.395l8.967 7.661a5.13 5.13 0 0 0 .464-2.123z"/></svg>