<svg xmlns="http://www.w3.org/2000/svg" width="61" height="32"><path fill="#8e8f99" d="M21.379 21.954a.509.509 0 0 1 .134.352c.005.083-.012.167-.048.244s-.091.146-.16.201a.967.967 0 0 1-.605.162h-1.064v-2.23h1.042c.206-.012.41.04.577.148.067.051.121.115.156.187s.051.151.046.23a.484.484 0 0 1-.121.341.576.576 0 0 1-.317.174.62.62 0 0 1 .359.191zm-1.248-.337h.445a.457.457 0 0 0 .283-.074c.033-.027.059-.061.076-.099s.023-.078.02-.119a.258.258 0 0 0-.094-.218.465.465 0 0 0-.292-.075h-.438v.585zm.772.855c.036-.028.064-.063.082-.102s.026-.082.023-.124c.003-.043-.006-.086-.024-.126s-.047-.075-.083-.103a.497.497 0 0 0-.302-.081h-.467v.613h.473a.51.51 0 0 0 .299-.077zM23.509 22.912l-.58-.872h-.218v.872h-.499v-2.23h.944a.998.998 0 0 1 .657.19c.132.121.212.28.224.45s-.042.337-.154.473a.796.796 0 0 1-.45.227l.617.891h-.542zm-.798-1.175h.408c.283 0 .425-.113.425-.338.003-.046-.005-.092-.023-.135s-.046-.082-.081-.115a.477.477 0 0 0-.321-.09h-.413l.005.679zM26.234 22.464h-.993l-.175.449h-.523l.912-2.205h.565l.909 2.205h-.523l-.172-.449zm-.133-.338-.363-.941-.363.941h.726zM29.645 22.913h-.495l-1.11-1.516v1.516h-.494v-2.23h.494l1.11 1.525v-1.525h.495v2.23zM32.469 22.379a1.024 1.024 0 0 1-.448.393 1.601 1.601 0 0 1-.696.141h-.881v-2.23h.881c.241-.006.48.041.696.137.189.086.346.222.448.389a1.19 1.19 0 0 1 0 1.17zm-.566-.054c.141-.148.219-.337.219-.532s-.078-.384-.219-.532a.928.928 0 0 0-.62-.19h-.344v1.443h.344a.919.919 0 0 0 .62-.19zM26.543 8.279s6.388 2.171 6.252 5.313v5.314s-6.383-2.172-6.25-5.314l-.002-5.313zM38.487 17.662a9.378 9.378 0 0 1 4.059-1.346v-1.663c-1.679.582-3.102 1.638-4.059 3.01z"/><path fill="#8e8f99" d="M37.762 18.163c.987-1.79 2.699-3.171 4.783-3.86V9.51s-9.097 3.093-8.905 7.567v7.566s.405-.138 1.043-.398c0-.242 0-.486.029-.731.188-2.077 1.285-4.002 3.05-5.351z"/><path fill="#8e8f99" d="M36.897 20.973a7.108 7.108 0 0 1 .319-1.549c-1.099 1.165-1.764 2.611-1.902 4.134a6.23 6.23 0 0 0-.024.436 27.346 27.346 0 0 0 1.75-.83 7.081 7.081 0 0 1-.142-2.191zM37.259 21.001c-.06.663-.023 1.33.113 1.984 2.485-1.339 5.278-3.408 5.171-5.908v-.218c-1.776.179-3.437.878-4.729 1.989a6.853 6.853 0 0 0-.554 2.153z"/></svg>