<svg xmlns="http://www.w3.org/2000/svg" width="61" height="32"><path fill="#8e8f99" d="M31.102 15.798a1.072 1.072 0 0 1-.22-.724v-1.05c0-.322.073-.567.219-.734s.397-.251.753-.25c.334 0 .572.071.712.214a.866.866 0 0 1 .21.628v.247h-.598v-.25a1.34 1.34 0 0 0-.017-.245.24.24 0 0 0-.085-.145.346.346 0 0 0-.217-.057.368.368 0 0 0-.228.06.28.28 0 0 0-.099.16 1.265 1.265 0 0 0-.024.26v1.275a.654.654 0 0 0 .077.358c.03.038.071.068.119.087s.102.026.154.02a.325.325 0 0 0 .212-.058.255.255 0 0 0 .089-.155c.014-.085.02-.17.019-.255v-.259h.598v.236a.958.958 0 0 1-.207.66c-.137.156-.371.234-.716.234s-.604-.083-.752-.256zM33.591 15.808c-.151-.163-.227-.402-.227-.717v-1.105c0-.312.076-.548.227-.708s.404-.24.758-.239c.352 0 .603.08.754.239s.228.396.228.708v1.105c0 .312-.077.551-.23.716s-.404.247-.752.247-.605-.083-.758-.246zm1.037-.265a.617.617 0 0 0 .072-.327v-1.353a.597.597 0 0 0-.071-.321c-.03-.039-.073-.069-.122-.088s-.104-.025-.158-.019c-.054-.006-.108 0-.158.019s-.092.049-.123.088a.593.593 0 0 0-.072.32v1.359a.599.599 0 0 0 .072.327c.035.034.078.062.126.081a.421.421 0 0 0 .308 0 .384.384 0 0 0 .126-.081v-.006zM36.05 13.071h.644l.484 2.038.495-2.038h.627l.063 2.942H37.9l-.049-2.045-.478 2.045h-.371l-.495-2.052-.046 2.052h-.468l.058-2.942zM39.085 13.071h1.003c.577 0 .867.278.867.835 0 .533-.304.8-.912.799h-.342v1.308h-.619l.004-2.942zm.856 1.258c.061.007.123.002.182-.014s.113-.043.158-.079a.476.476 0 0 0 .089-.332.96.96 0 0 0-.029-.267c-.009-.029-.024-.057-.046-.081s-.048-.044-.078-.059a.631.631 0 0 0-.276-.047h-.24v.879h.24zM41.847 13.071h.665l.682 2.942h-.577l-.135-.678h-.593l-.139.678h-.585l.682-2.942zm.568 1.923-.231-1.235-.232 1.235h.463zM43.745 13.071h.433l.829 1.678v-1.678h.514v2.942h-.412l-.835-1.752v1.752h-.531l.001-2.942zM46.725 14.892l-.689-1.816h.581l.421 1.167.395-1.167h.568l-.681 1.816v1.122h-.594v-1.122zM32.057 17.299v.154h-.505v1.195h-.212v-1.195h-.508v-.154h1.224zM33.641 18.649h-.163a.073.073 0 0 1-.046-.013.073.073 0 0 1-.027-.031l-.146-.32h-.701l-.146.32a.09.09 0 0 1-.022.036.073.073 0 0 1-.046.013h-.163l.619-1.349h.215l.626 1.344zm-1.025-.501h.584l-.248-.549a1.018 1.018 0 0 1-.046-.127l-.024.072-.022.057-.245.548zM34.708 18.516a.659.659 0 0 0 .215-.016.692.692 0 0 0 .172-.058v-.303h-.248c-.006 0-.012 0-.018-.002s-.011-.005-.015-.008-.007-.007-.009-.011-.003-.009-.003-.014V18h.48v.517a.907.907 0 0 1-.261.11 1.143 1.143 0 0 1-.155.028c-.06.006-.12.009-.181.009a.936.936 0 0 1-.312-.05.758.758 0 0 1-.248-.141.66.66 0 0 1-.16-.214.678.678 0 0 1-.057-.28.624.624 0 0 1 .216-.496.746.746 0 0 1 .248-.14 1.06 1.06 0 0 1 .332-.05c.058 0 .115.004.172.012a.805.805 0 0 1 .379.157l-.059.083c-.005.008-.012.014-.02.018s-.018.007-.028.007a.07.07 0 0 1-.038-.011.936.936 0 0 1-.061-.032.735.735 0 0 0-.354-.078.738.738 0 0 0-.239.037.485.485 0 0 0-.297.275.634.634 0 0 0 0 .45.53.53 0 0 0 .305.277.722.722 0 0 0 .245.027zM36.681 18.495h.676v.154h-.883V17.3h.212l-.005 1.195zM38.061 18.649h-.212V17.3h.212v1.349zM38.848 17.306a.11.11 0 0 1 .032.025l.905 1.017a.384.384 0 0 1 0-.048v-1.006h.184v1.355h-.107a.102.102 0 0 1-.046-.008.106.106 0 0 1-.033-.026l-.904-1.016v1.05h-.177V17.3h.11c.012 0 .024.002.035.006zM41.529 17.299v.148h-.751v.445h.608v.143h-.608v.46h.751v.148h-.968v-1.346h.968zM19.344 8.967l9.401 2.303v8.071l-9.401-2.302V8.967zm-.603-.688v9.152l10.605 2.599v-9.151l-10.605-2.6z"/><path fill="#8e8f99" d="m24.425 24.279-10.607-2.601v-9.151l10.607 2.6v9.152zM18.917 8.863l9.278 2.274-3.946 3.406-9.279-2.276 3.947-3.405zm-.176-.584-4.923 4.248 10.607 2.6 4.921-4.248-10.605-2.6zM25.021 23.764l4.325-3.733-4.325-1.061v4.793z"/></svg>